<svg xmlns="http://www.w3.org/2000/svg" width="800" height="210" viewBox="0 0 800 210">
  <g transform="scale(1.5)">
    <g id="grid" transform="translate(60, 10)">
      <rect width="20" height="20" fill="#ebedf0" />
      <rect x="22" width="20" height="20" fill="#ebedf0" />
      <rect x="44" width="20" height="20" fill="#ebedf0" />
      <rect x="66" width="20" height="20" fill="#ebedf0" />
      <rect x="88" width="20" height="20" fill="#ebedf0" />
      <rect x="110" width="20" height="20" fill="#ebedf0" />
      <rect x="132" width="20" height="20" fill="#ebedf0" />
      <rect y="22" width="20" height="20" fill="#ebedf0" />
      <rect x="22" y="22" width="20" height="20" fill="#ebedf0" />
      <rect x="44" y="22" width="20" height="20" fill="#ebedf0" />
      <rect x="66" y="22" width="20" height="20" fill="#ebedf0" />
      <rect x="88" y="22" width="20" height="20" fill="#ebedf0" />
      <rect x="110" y="22" width="20" height="20" fill="#ebedf0" />
      <rect x="132" y="22" width="20" height="20" fill="#ebedf0" />
      <rect y="44" width="20" height="20" fill="#ebedf0" />
      <rect x="22" y="44" width="20" height="20" fill="#ebedf0" />
      <rect x="44" y="44" width="20" height="20" fill="#ebedf0" />
      <rect x="66" y="44" width="20" height="20" fill="#ebedf0" />
      <rect x="88" y="44" width="20" height="20" fill="#ebedf0" />
      <rect x="110" y="44" width="20" height="20" fill="#ebedf0" />
      <rect x="132" y="44" width="20" height="20" fill="#ebedf0" />
      <rect y="66" width="20" height="20" fill="#ebedf0" />
      <rect x="22" y="66" width="20" height="20" fill="#ebedf0" />
      <rect x="44" y="66" width="20" height="20" fill="#ebedf0" />
      <rect x="66" y="66" width="20" height="20" fill="#ebedf0" />
      <rect x="88" y="66" width="20" height="20" fill="#ebedf0" />
      <rect x="110" y="66" width="20" height="20" fill="#ebedf0" />
      <rect x="132" y="66" width="20" height="20" fill="#ebedf0" />
      <rect y="88" width="20" height="20" fill="#ebedf0" />
      <rect x="22" y="88" width="20" height="20" fill="#ebedf0" />
      <rect x="44" y="88" width="20" height="20" fill="#ebedf0" />
      <rect x="66" y="88" width="20" height="20" fill="#ebedf0" />
      <rect x="88" y="88" width="20" height="20" fill="#ebedf0" />
      <rect x="110" y="88" width="20" height="20" fill="#ebedf0" />
      <rect x="132" y="88" width="20" height="20" fill="#ebedf0" />
      <rect y="110" width="20" height="20" fill="#ebedf0" />
      <rect x="22" y="110" width="20" height="20" fill="#ebedf0" />
      <rect x="44" y="110" width="20" height="20" fill="#ebedf0" />
      <rect x="66" y="110" width="20" height="20" fill="#ebedf0" />
      <rect x="88" y="110" width="20" height="20" fill="#ebedf0" />
      <rect x="110" y="110" width="20" height="20" fill="#ebedf0" />
      <rect x="132" y="110" width="20" height="20" fill="#ebedf0" />
      <rect y="132" width="20" height="20" fill="#ebedf0" />
      <rect x="22" y="132" width="20" height="20" fill="#ebedf0" />
      <rect x="44" y="132" width="20" height="20" fill="#ebedf0" />
      <rect x="66" y="132" width="20" height="20" fill="#ebedf0" />
      <rect x="88" y="132" width="20" height="20" fill="#ebedf0" />
      <rect x="110" y="132" width="20" height="20" fill="#ebedf0" />
      <rect x="132" y="132" width="20" height="20" fill="#ebedf0" />
      <rect y="154" width="20" height="20" fill="#ebedf0" />
      <rect x="22" y="154" width="20" height="20" fill="#ebedf0" />
      <rect x="44" y="154" width="20" height="20" fill="#ebedf0" />
      <rect x="66" y="154" width="20" height="20" fill="#ebedf0" />
      <rect x="88" y="154" width="20" height="20" fill="#ebedf0" />
      <rect x="110" y="154" width="20" height="20" fill="#ebedf0" />
      <rect x="132" y="154" width="20" height="20" fill="#ebedf0" />
      <rect y="176" width="20" height="20" fill="#ebedf0" />
      <rect x="22" y="176" width="20" height="20" fill="#ebedf0" />
      <rect x="44" y="176" width="20" height="20" fill="#ebedf0" />
      <rect x="66" y="176" width="20" height="20" fill="#ebedf0" />
      <rect x="88" y="176" width="20" height="20" fill="#ebedf0" />
      <rect x="110" y="176" width="20" height="20" fill="#ebedf0" />
      <rect x="132" y="176" width="20" height="20" fill="#ebedf0" />
      <rect y="198" width="20" height="20" fill="#ebedf0" />
      <rect x="22" y="198" width="20" height="20" fill="#ebedf0" />
      <rect x="44" y="198" width="20" height="20" fill="#ebedf0" />
      <rect x="66" y="198" width="20" height="20" fill="#ebedf0" />
      <rect x="88" y="198" width="20" height="20" fill="#ebedf0" />
      <rect x="110" y="198" width="20" height="20" fill="#ebedf0" />
      <rect x="132" y="198" width="20" height="20" fill="#ebedf0" />
    </g>
  </g>
</svg>